<svg width="64" height="95" viewBox="0 0 64 95" fill="none" xmlns="http://www.w3.org/2000/svg">
<path d="M35.1 29.9V53.8C35.1 57.5 34.05 60.35 31.95 62.35C29.8833 64.35 27.0833 65.35 23.55 65.35C19.85 65.35 16.8833 64.3 14.65 62.2C12.4167 60.1 11.3 57.1167 11.3 53.25H19.8C19.8 54.7167 20.1 55.8333 20.7 56.6C21.3 57.3333 22.1667 57.7 23.3 57.7C24.3333 57.7 25.1333 57.3667 25.7 56.7C26.2667 56.0333 26.55 55.0667 26.55 53.8V29.9H35.1ZM46.0063 65.4C44.5063 65.4 43.2729 64.9667 42.3063 64.1C41.3729 63.2 40.9063 62.1 40.9063 60.8C40.9063 59.4667 41.3729 58.35 42.3063 57.45C43.2729 56.55 44.5063 56.1 46.0063 56.1C47.4729 56.1 48.6729 56.55 49.6063 57.45C50.5729 58.35 51.0563 59.4667 51.0563 60.8C51.0563 62.1 50.5729 63.2 49.6063 64.1C48.6729 64.9667 47.4729 65.4 46.0063 65.4Z" fill="#FEB633"/>
</svg>
